<svg xmlns="http://www.w3.org/2000/svg" xmlns:xlink="http://www.w3.org/1999/xlink"><symbol id="dropdown-arrow" viewBox="0 0 8 6">
<path d="M0.799962 1.74445L3.99996 5.05556L7.19996 1.74445C7.38099 1.55652 7.37539 1.25742 7.18746 1.07639C6.99953 0.895365 6.70043 0.900961 6.51941 1.08889L3.99996 3.69722L1.47774 1.08889C1.29671 0.90096 0.997614 0.895364 0.809684 1.07639C0.621754 1.25742 0.616157 1.55652 0.797184 1.74445L0.799962 1.74445Z" fill="#F2F2F2"/>
</symbol><symbol id="dropdown-mobile-arrow" viewBox="0 0 5 4">
<path d="M0.259985 1.12113L2.49998 3.4389L4.73999 1.12113C4.8667 0.989576 4.86279 0.780207 4.73124 0.653488C4.59968 0.52677 4.39032 0.530687 4.2636 0.662238L2.49999 2.48807L0.73443 0.662238C0.607711 0.530687 0.398342 0.526769 0.266791 0.653488C0.135239 0.780207 0.131322 0.989575 0.258041 1.12113L0.259985 1.12113Z" fill="#0079B8"/>
</symbol><symbol id="login-out" viewBox="0 0 33 32">
<path d="M0 3C0 1.34315 1.34315 0 3 0H30C31.6569 0 33 1.34315 33 3V29C33 30.6569 31.6569 32 30 32H3C1.34315 32 0 30.6569 0 29V3Z" fill="#F6F7F8" fill-opacity="0.2"/>
<path d="M8.55553 7.33339H20.1111V14.4112H21.5555V7.33339C21.5555 6.9503 21.4033 6.5829 21.1325 6.31201C20.8616 6.04113 20.4942 5.88895 20.1111 5.88895H8.55553C8.17244 5.88895 7.80504 6.04113 7.53415 6.31201C7.26327 6.5829 7.11108 6.9503 7.11108 7.33339V24.6667C7.11108 25.0498 7.26327 25.4172 7.53415 25.6881C7.80504 25.959 8.17244 26.1112 8.55553 26.1112H20.1111C20.4942 26.1112 20.8616 25.959 21.1325 25.6881C21.4033 25.4172 21.5555 25.0498 21.5555 24.6667H8.55553V7.33339Z" fill="#F2F2F2"/>
<path d="M23.8376 15.4801C23.6994 15.3618 23.5217 15.3 23.3399 15.307C23.1582 15.314 22.9857 15.3894 22.8571 15.518C22.7285 15.6466 22.6531 15.819 22.6461 16.0008C22.6391 16.1826 22.7009 16.3603 22.8193 16.4985L25.2604 18.889H14.7881C14.5966 18.889 14.4129 18.9651 14.2775 19.1005C14.142 19.236 14.0659 19.4197 14.0659 19.6112C14.0659 19.8028 14.142 19.9865 14.2775 20.1219C14.4129 20.2574 14.5966 20.3335 14.7881 20.3335H25.2604L22.8193 22.8323C22.7436 22.8971 22.6822 22.9768 22.6389 23.0664C22.5955 23.156 22.5712 23.2536 22.5673 23.353C22.5635 23.4525 22.5803 23.5517 22.6166 23.6444C22.6529 23.737 22.708 23.8212 22.7783 23.8916C22.8487 23.962 22.9329 24.017 23.0256 24.0534C23.1183 24.0897 23.2174 24.1064 23.3169 24.1026C23.4164 24.0987 23.514 24.0744 23.6036 24.031C23.6932 23.9877 23.7728 23.9263 23.8376 23.8507L28.0554 19.6618L23.8376 15.4801Z" fill="#F2F2F2"/>
</symbol><symbol id="sidenav-arrow" viewBox="0 0 16 16">
<path d="M5.99116 13.12L11.2889 7.99999L5.99116 2.87999C5.69048 2.59035 5.21192 2.59931 4.92228 2.89999C4.63263 3.20068 4.64159 3.67924 4.94227 3.96888L9.11561 7.99999L4.94227 12.0355C4.64159 12.3252 4.63263 12.8038 4.92227 13.1044C5.21192 13.4051 5.69047 13.4141 5.99116 13.1244L5.99116 13.12Z" fill="#737373"/>
</symbol><symbol id="user" viewBox="0 0 28 28">
<path d="M14.0001 13.2223C15.0769 13.2223 16.1295 12.903 17.0249 12.3047C17.9202 11.7065 18.618 10.8562 19.0301 9.86132C19.4422 8.86648 19.55 7.77178 19.3399 6.71566C19.1299 5.65954 18.6113 4.68944 17.8499 3.92802C17.0885 3.1666 16.1184 2.64807 15.0623 2.43799C14.0061 2.22791 12.9115 2.33573 11.9166 2.74781C10.9218 3.15989 10.0715 3.85772 9.47322 4.75305C8.87497 5.64838 8.55566 6.70101 8.55566 7.77782C8.55566 9.22178 9.12927 10.6066 10.1503 11.6276C11.1713 12.6487 12.5562 13.2223 14.0001 13.2223ZM14.0001 3.88893C14.7693 3.88893 15.5211 4.11701 16.1607 4.54433C16.8002 4.97164 17.2986 5.57901 17.593 6.28961C17.8873 7.00021 17.9643 7.78213 17.8143 8.53651C17.6642 9.29088 17.2938 9.98381 16.75 10.5277C16.2061 11.0716 15.5132 11.4419 14.7588 11.592C14.0044 11.742 13.2225 11.665 12.5119 11.3707C11.8013 11.0763 11.1939 10.5779 10.7666 9.93837C10.3393 9.29885 10.1112 8.54697 10.1112 7.77782C10.1112 6.74642 10.5209 5.75727 11.2502 5.02796C11.9796 4.29865 12.9687 3.88893 14.0001 3.88893Z" fill="white"/>
<path d="M23.6989 18.9545C22.4516 17.6362 20.9485 16.5861 19.2816 15.8684C17.6146 15.1508 15.8188 14.7806 14.0039 14.7806C12.189 14.7806 10.3932 15.1508 8.72627 15.8684C7.05932 16.5861 5.55623 17.6362 4.30892 18.9545C4.03849 19.2433 3.8883 19.6244 3.88892 20.02V24.1112C3.88892 24.5237 4.05281 24.9194 4.34453 25.2111C4.63625 25.5028 5.03191 25.6667 5.44447 25.6667H22.5556C22.9681 25.6667 23.3638 25.5028 23.6555 25.2111C23.9473 24.9194 24.1111 24.5237 24.1111 24.1112V20.02C24.1139 19.6254 23.9665 19.2445 23.6989 18.9545ZM22.5556 24.1112H5.44447V20.0123C6.54676 18.8516 7.8737 17.9273 9.34453 17.2957C10.8154 16.6641 12.3993 16.3384 14 16.3384C15.6007 16.3384 17.1847 16.6641 18.6555 17.2957C20.1264 17.9273 21.4533 18.8516 22.5556 20.0123V24.1112Z" fill="white"/>
</symbol></svg>