<?xml version="1.0"?>
<svg xmlns="http://www.w3.org/2000/svg" id="OutLine" viewBox="0 0 512 512" width="512" height="512"><path d="M349.657,18.343A8,8,0,0,0,344,16H120A56.063,56.063,0,0,0,64,72V440a56.063,56.063,0,0,0,56,56H392a56.063,56.063,0,0,0,56-56V120a8,8,0,0,0-2.343-5.657ZM352,43.313,420.687,112H392a40.045,40.045,0,0,1-40-40ZM120,32H336V72a56.063,56.063,0,0,0,56,56h40V352H80V72A40.045,40.045,0,0,1,120,32ZM392,480H120a40.045,40.045,0,0,1-40-40V368H432v72A40.045,40.045,0,0,1,392,480Z"/><path d="M192,384H176a8,8,0,0,0,0,16h16a8,8,0,0,1,0,16H176a8,8,0,0,0,0,16h16a8,8,0,0,1,0,16H176a8,8,0,0,0,0,16h16a23.988,23.988,0,0,0,17.874-40A23.988,23.988,0,0,0,192,384Z"/><path d="M240,384a8,8,0,0,0-8,8v64a8,8,0,0,0,8,8,40,40,0,0,0,0-80Zm8,62.629V401.371a24,24,0,0,1,0,45.258Z"/><path d="M320,400h16a8,8,0,0,0,0-16H320a24,24,0,0,0,0,48,8,8,0,0,1,0,16H304a8,8,0,0,0,0,16h16a24,24,0,0,0,0-48,8,8,0,0,1,0-16Z"/><path d="M180.115,262.993l72,40a8,8,0,0,0,7.77,0l72-40A8,8,0,0,0,336,256V160a8,8,0,0,0-4.115-6.993l-72-40a8,8,0,0,0-7.77,0l-72,40A8,8,0,0,0,176,160v96A8,8,0,0,0,180.115,262.993ZM192,173.6l56,31.111v77.7l-56-31.111ZM264,282.4v-77.7L320,173.6v77.7Zm-8-153.253L311.527,160,256,190.849,200.473,160Z"/></svg>
