<?xml version="1.0"?>
<svg xmlns="http://www.w3.org/2000/svg" id="OutLine" viewBox="0 0 512 512" width="512" height="512"><path d="M349.657,18.343A8,8,0,0,0,344,16H120A56.064,56.064,0,0,0,64,72V440a56.064,56.064,0,0,0,56,56H392a56.064,56.064,0,0,0,56-56V120a8,8,0,0,0-2.343-5.657ZM352,43.313,420.687,112H392a40.045,40.045,0,0,1-40-40ZM120,32H336V72a56.064,56.064,0,0,0,56,56h40V352H80V72A40.045,40.045,0,0,1,120,32ZM392,480H120a40.045,40.045,0,0,1-40-40V368H432v72A40.045,40.045,0,0,1,392,480Z"/><path d="M231.491,389.191a8,8,0,0,0-14.982,0l-24,64a8,8,0,0,0,14.982,5.618L211.544,448h24.912l4.053,10.809a8,8,0,1,0,14.982-5.618ZM217.544,432,224,414.784,230.456,432Z"/><path d="M312,400a8,8,0,0,0,0-16H280a8,8,0,0,0,0,16h8v48h-8a8,8,0,0,0,0,16h32a8,8,0,0,0,0-16h-8V400Z"/><path d="M216,266.564V296a8,8,0,0,0,8,8h64a8,8,0,0,0,8-8V266.564l38.51-53.914a8,8,0,0,0,.068-9.2l-72-104a8,8,0,0,0-13.156,0l-72,104a8,8,0,0,0,.068,9.2ZM232,288V272h48v16Zm32-88a8,8,0,1,1-8-8A8.009,8.009,0,0,1,264,200Zm-16-70.39v47.766a24,24,0,1,0,16,0V129.61l54.22,78.318L283.883,256H228.117L193.78,207.928Z"/></svg>
