<?xml version="1.0"?>
<svg xmlns="http://www.w3.org/2000/svg" id="OutLine" viewBox="0 0 512 512" width="512" height="512"><path d="M349.657,18.343A8,8,0,0,0,344,16H120A56.063,56.063,0,0,0,64,72V440a56.063,56.063,0,0,0,56,56H392a56.063,56.063,0,0,0,56-56V120a8,8,0,0,0-2.343-5.657ZM352,43.313,420.687,112H392a40.045,40.045,0,0,1-40-40ZM120,32H336V72a56.063,56.063,0,0,0,56,56h40V352H80V72A40.045,40.045,0,0,1,120,32ZM392,480H120a40.045,40.045,0,0,1-40-40V368H432v72A40.045,40.045,0,0,1,392,480Z"/><path d="M199.49,389.191a8,8,0,0,0-14.98,0l-24,64a8,8,0,1,0,14.98,5.618L179.544,448h24.912l4.054,10.809a8,8,0,1,0,14.98-5.618ZM185.544,432,192,414.784,198.456,432Z"/><path d="M264,400h16a8,8,0,0,0,0-16H264a24,24,0,0,0,0,48,8,8,0,0,1,0,16H248a8,8,0,0,0,0,16h16a24,24,0,0,0,0-48,8,8,0,0,1,0-16Z"/><path d="M328,384H312a8,8,0,0,0-8,8v64a8,8,0,0,0,16,0V432h8a24,24,0,0,0,0-48Zm0,32h-8V400h8a8,8,0,0,1,0,16Z"/><path d="M170.343,277.657a8,8,0,1,0,11.314-11.314L139.313,224l42.344-42.343a8,8,0,0,0-11.314-11.314l-48,48a8,8,0,0,0,0,11.314Z"/><path d="M330.343,277.657a8,8,0,0,0,11.314,0l48-48a8,8,0,0,0,0-11.314l-48-48a8,8,0,0,0-11.314,11.314L372.687,224l-42.344,42.343A8,8,0,0,0,330.343,277.657Z"/><path d="M219.562,278.656a8,8,0,0,0,11.094-2.218l64-96a8,8,0,0,0-13.312-8.876l-64,96A8,8,0,0,0,219.562,278.656Z"/><path d="M223.024,207.979q.5.021.989.021a24.026,24.026,0,1,0-.989-.021Zm-4.446-29.862A7.942,7.942,0,0,1,223.993,176c.111,0,.222,0,.333.007a8,8,0,1,1-5.748,2.111Z"/><path d="M264,264a24,24,0,1,0,24-24A24.028,24.028,0,0,0,264,264Zm32,0a8,8,0,1,1-8-8A8.009,8.009,0,0,1,296,264Z"/></svg>
