<?xml version="1.0"?>
<svg xmlns="http://www.w3.org/2000/svg" id="OutLine" viewBox="0 0 512 512" width="512" height="512"><path d="M349.657,18.343A8,8,0,0,0,344,16H120A56.063,56.063,0,0,0,64,72V440a56.063,56.063,0,0,0,56,56H392a56.063,56.063,0,0,0,56-56V120a8,8,0,0,0-2.343-5.657ZM352,43.313,420.687,112H392a40.045,40.045,0,0,1-40-40ZM120,32H336V72a56.063,56.063,0,0,0,56,56h40V352H80V72A40.045,40.045,0,0,1,120,32ZM392,480H120a40.045,40.045,0,0,1-40-40V368H432v72A40.045,40.045,0,0,1,392,480Z"/><path d="M184,384H168a8,8,0,0,0-8,8v64a8,8,0,0,0,8,8h16a23.984,23.984,0,0,0,17.869-40A23.984,23.984,0,0,0,184,384Zm-8,16h8a8,8,0,0,1,0,16h-8Zm8,48h-8V432h8a8,8,0,0,1,0,16Z"/><path d="M344,384H312a8,8,0,0,0,0,16h8v56a8,8,0,0,0,16,0V400h8a8,8,0,0,0,0-16Z"/><path d="M263.491,389.191a8,8,0,0,0-14.982,0l-24,64a8,8,0,0,0,14.982,5.618L243.544,448h24.912l4.053,10.809a8,8,0,0,0,14.982-5.618ZM249.544,432,256,414.784,262.456,432Z"/><path d="M136,304H304a8,8,0,0,0,8-8V275.336q.5-.2.987-.407L333.255,295.2a8,8,0,0,0,11.313,0L367.2,272.569a8,8,0,0,0,0-11.314l-20.268-20.268q.209-.492.408-.987H376a8,8,0,0,0,8-8V200a8,8,0,0,0-8-8H347.336q-.2-.5-.408-.987L367.2,170.745a8,8,0,0,0,0-11.314L344.568,136.8a8,8,0,0,0-11.313,0l-20.268,20.267q-.49-.207-.987-.407V136a8,8,0,0,0-8-8H136a8,8,0,0,0-8,8V296A8,8,0,0,0,136,304Zm8-128h70.059l15.012,15.013c-.138.327-.274.657-.407.987H200a8,8,0,0,0-8,8v32a8,8,0,0,0,8,8h28.664c.133.33.269.66.407.987L208.8,261.255a8,8,0,0,0,0,11.314L224.235,288H144ZM264,288H249.941l13.071-13.071q.492.207.988.407Zm10.283-118A8,8,0,0,0,280,162.332V144h16v18.332A8,8,0,0,0,301.717,170a47.755,47.755,0,0,1,9.112,3.768,8,8,0,0,0,9.468-1.377l18.615-18.616,11.314,11.314L331.611,183.7a8,8,0,0,0-1.377,9.468A47.764,47.764,0,0,1,334,202.282,8,8,0,0,0,341.667,208H368v16H341.667A8,8,0,0,0,334,229.718a47.764,47.764,0,0,1-3.766,9.112,8,8,0,0,0,1.377,9.468l18.615,18.614-11.314,11.314L320.3,259.61a8.006,8.006,0,0,0-9.468-1.377A47.755,47.755,0,0,1,301.717,262,8,8,0,0,0,296,269.668V288H280V269.668A8,8,0,0,0,274.283,262a47.817,47.817,0,0,1-9.112-3.767,8,8,0,0,0-9.468,1.376l-18.615,18.616-11.314-11.314L244.389,248.3a8,8,0,0,0,1.377-9.469A47.76,47.76,0,0,1,242,229.717,8,8,0,0,0,234.332,224H208V208h26.332A8,8,0,0,0,242,202.283a47.76,47.76,0,0,1,3.766-9.112,8,8,0,0,0-1.377-9.469l-18.615-18.614,11.314-11.314L255.7,172.39a8,8,0,0,0,9.468,1.376A47.817,47.817,0,0,1,274.283,170Zm-24.342-26H264v12.664q-.5.2-.988.407Zm-25.706,0L208.8,159.431c-.182.182-.353.372-.515.569H144V144Z"/><path d="M288,248a32,32,0,1,0-32-32A32.036,32.036,0,0,0,288,248Zm0-48a16,16,0,1,1-16,16A16.019,16.019,0,0,1,288,200Z"/><path d="M184,256H168a8,8,0,0,0,0,16h16a8,8,0,0,0,0-16Z"/><circle cx="168" cy="232" r="8"/><circle cx="168" cy="200" r="8"/></svg>
