<svg id="OutLine" height="512" viewBox="0 0 512 512" width="512" xmlns="http://www.w3.org/2000/svg"><path d="m349.657 18.343a8 8 0 0 0 -5.657-2.343h-224a56.063 56.063 0 0 0 -56 56v368a56.063 56.063 0 0 0 56 56h272a56.063 56.063 0 0 0 56-56v-320a8 8 0 0 0 -2.343-5.657zm2.343 24.97 68.687 68.687h-28.687a40.045 40.045 0 0 1 -40-40zm-232-11.313h216v40a56.063 56.063 0 0 0 56 56h40v224h-352v-280a40.045 40.045 0 0 1 40-40zm272 448h-272a40.045 40.045 0 0 1 -40-40v-72h352v72a40.045 40.045 0 0 1 -40 40z"/><path d="m200 400a10.689 10.689 0 0 1 4.589 1.058 8 8 0 0 0 6.822-14.473 26.586 26.586 0 0 0 -11.411-2.585c-17.645 0-32 17.944-32 40s14.355 40 32 40a26.587 26.587 0 0 0 11.412-2.585 8 8 0 0 0 -6.824-14.473 10.678 10.678 0 0 1 -4.588 1.058c-8.673 0-16-10.99-16-24s7.327-24 16-24z"/><path d="m272 416h-8v-8a8 8 0 0 0 -16 0v8h-8a8 8 0 0 0 0 16h8v8a8 8 0 0 0 16 0v-8h8a8 8 0 0 0 0-16z"/><path d="m336 416h-8v-8a8 8 0 0 0 -16 0v8h-8a8 8 0 0 0 0 16h8v8a8 8 0 0 0 16 0v-8h8a8 8 0 0 0 0-16z"/><path d="m240 144a8 8 0 0 0 8-8v-16a8 8 0 0 0 -16 0v16a8 8 0 0 0 8 8z"/><path d="m208 176a8 8 0 0 0 8-8v-48a8 8 0 0 0 -16 0v48a8 8 0 0 0 8 8z"/><path d="m176 304a8 8 0 0 0 8-8v-48a8 8 0 0 0 -16 0v48a8 8 0 0 0 8 8z"/><path d="m336 304a8 8 0 0 0 8-8v-80a8 8 0 0 0 -16 0v80a8 8 0 0 0 8 8z"/><path d="m176 192a8 8 0 0 0 8-8v-16a8 8 0 0 0 -16 0v16a8 8 0 0 0 8 8z"/><path d="m208 272a8 8 0 0 0 8-8v-16a8 8 0 0 0 -16 0v16a8 8 0 0 0 8 8z"/><circle cx="208" cy="296" r="8"/><circle cx="176" cy="216" r="8"/><circle cx="240" cy="168" r="8"/><path d="m240 256a8 8 0 0 0 8-8v-48a8 8 0 0 0 -16 0v48a8 8 0 0 0 8 8z"/><path d="m208 224a8 8 0 0 0 8-8v-16a8 8 0 0 0 -16 0v16a8 8 0 0 0 8 8z"/><circle cx="336" cy="184" r="8"/><path d="m272 304a8 8 0 0 0 8-8v-48a8 8 0 0 0 -16 0v48a8 8 0 0 0 8 8z"/><path d="m272 176a8 8 0 0 0 8-8v-16a8 8 0 0 0 -16 0v16a8 8 0 0 0 8 8z"/><circle cx="272" cy="120" r="8"/><path d="m272 224a8 8 0 0 0 8-8v-16a8 8 0 0 0 -16 0v16a8 8 0 0 0 8 8z"/><path d="m176 144a8 8 0 0 0 8-8v-16a8 8 0 0 0 -16 0v16a8 8 0 0 0 8 8z"/><path d="m304 208a8 8 0 0 0 8-8v-80a8 8 0 0 0 -16 0v80a8 8 0 0 0 8 8z"/><circle cx="304" cy="232" r="8"/><path d="m304 304a8 8 0 0 0 8-8v-32a8 8 0 0 0 -16 0v32a8 8 0 0 0 8 8z"/><path d="m240 304a8 8 0 0 0 8-8v-16a8 8 0 0 0 -16 0v16a8 8 0 0 0 8 8z"/><path d="m336 160a8 8 0 0 0 8-8v-16a8 8 0 0 0 -16 0v16a8 8 0 0 0 8 8z"/></svg>