<?xml version="1.0"?>
<svg xmlns="http://www.w3.org/2000/svg" id="OutLine" viewBox="0 0 512 512" width="512" height="512"><path d="M349.657,18.343A8,8,0,0,0,344,16H120A56.063,56.063,0,0,0,64,72V440a56.063,56.063,0,0,0,56,56H392a56.063,56.063,0,0,0,56-56V120a8,8,0,0,0-2.343-5.657ZM352,43.313,420.687,112H392a40.045,40.045,0,0,1-40-40ZM120,32H336V72a56.063,56.063,0,0,0,56,56h40V352H80V72A40.045,40.045,0,0,1,120,32ZM392,480H120a40.045,40.045,0,0,1-40-40V368H432v72A40.045,40.045,0,0,1,392,480Z"/><path d="M224,400a10.675,10.675,0,0,1,4.588,1.058,8,8,0,0,0,6.824-14.473A26.587,26.587,0,0,0,224,384c-17.645,0-32,17.944-32,40s14.355,40,32,40a26.587,26.587,0,0,0,11.412-2.585,8,8,0,0,0-6.824-14.473A10.675,10.675,0,0,1,224,448c-8.673,0-16-10.99-16-24S215.327,400,224,400Z"/><path d="M320,408a8,8,0,0,0-8-8v-8a8,8,0,0,0-16,0v8H280v-8a8,8,0,0,0-16,0v8a8,8,0,0,0,0,16v16a8,8,0,0,0,0,16v8a8,8,0,0,0,16,0v-8h16v8a8,8,0,0,0,16,0v-8a8,8,0,0,0,0-16V416A8,8,0,0,0,320,408Zm-24,24H280V416h16Z"/><path d="M136,240h40v40a8,8,0,0,0,8,8h88v8a8,8,0,0,0,8,8h96a8,8,0,0,0,8-8V200a8,8,0,0,0-8-8H280a8,8,0,0,0-8,8v72H192V240h40a8,8,0,0,0,8-8V136a8,8,0,0,0-8-8H136a8,8,0,0,0-8,8v96A8,8,0,0,0,136,240Zm152,48V240h80v48Zm80-80v16H288V208ZM144,224V176h80v48Zm80-80v16H144V144Z"/><path d="M200,192H168a8,8,0,0,0,0,16h32a8,8,0,0,0,0-16Z"/><path d="M344,256H312a8,8,0,0,0,0,16h32a8,8,0,0,0,0-16Z"/></svg>
