<?xml version="1.0"?>
<svg xmlns="http://www.w3.org/2000/svg" id="OutLine" viewBox="0 0 512 512" width="512" height="512"><path d="M349.657,18.343A8,8,0,0,0,344,16H120A56.064,56.064,0,0,0,64,72V440a56.064,56.064,0,0,0,56,56H392a56.063,56.063,0,0,0,56-56V120a8,8,0,0,0-2.343-5.657ZM352,43.313,420.687,112H392a40.045,40.045,0,0,1-40-40ZM120,32H336V72a56.063,56.063,0,0,0,56,56h40V352H80V72A40.045,40.045,0,0,1,120,32ZM392,480H120a40.045,40.045,0,0,1-40-40V368H432v72A40.045,40.045,0,0,1,392,480Z"/><path d="M256,400h16a8,8,0,0,0,0-16H256a24,24,0,0,0,0,48,8,8,0,0,1,0,16H240a8,8,0,0,0,0,16h16a24,24,0,0,0,0-48,8,8,0,0,1,0-16Z"/><path d="M320,400h16a8,8,0,0,0,0-16H320a24,24,0,0,0,0,48,8,8,0,0,1,0,16H304a8,8,0,0,0,0,16h16a24,24,0,0,0,0-48,8,8,0,0,1,0-16Z"/><path d="M200,400a10.708,10.708,0,0,1,4.59,1.058,8,8,0,0,0,6.82-14.474A26.581,26.581,0,0,0,200,384c-17.645,0-32,17.944-32,40s14.355,40,32,40a26.581,26.581,0,0,0,11.41-2.584,8,8,0,1,0-6.82-14.474A10.708,10.708,0,0,1,200,448c-8.673,0-16-10.991-16-24S191.327,400,200,400Z"/><circle cx="256" cy="200" r="8"/><circle cx="256" cy="232" r="8"/><path d="M152,224a8.009,8.009,0,0,1,8,8v32a24.027,24.027,0,0,0,24,24,8,8,0,0,0,0-16,8.009,8.009,0,0,1-8-8V232a23.9,23.9,0,0,0-6.126-16A23.9,23.9,0,0,0,176,200V168a8.009,8.009,0,0,1,8-8,8,8,0,0,0,0-16,24.027,24.027,0,0,0-24,24v32a8.009,8.009,0,0,1-8,8,8,8,0,0,0,0,16Z"/><path d="M336,264a8.009,8.009,0,0,1-8,8,8,8,0,0,0,0,16,24.027,24.027,0,0,0,24-24V232a8.009,8.009,0,0,1,8-8,8,8,0,0,0,0-16,8.009,8.009,0,0,1-8-8V168a24.027,24.027,0,0,0-24-24,8,8,0,0,0,0,16,8.009,8.009,0,0,1,8,8v32a23.9,23.9,0,0,0,6.126,16A23.9,23.9,0,0,0,336,232Z"/></svg>
