<?xml version="1.0"?>
<svg xmlns="http://www.w3.org/2000/svg" id="OutLine" viewBox="0 0 512 512" width="512" height="512"><path d="M349.657,18.343A8,8,0,0,0,344,16H120A56.063,56.063,0,0,0,64,72V440a56.063,56.063,0,0,0,56,56H392a56.063,56.063,0,0,0,56-56V120a8,8,0,0,0-2.343-5.657ZM352,43.313,420.687,112H392a40.045,40.045,0,0,1-40-40ZM120,32H336V72a56.063,56.063,0,0,0,56,56h40V352H80V72A40.045,40.045,0,0,1,120,32ZM392,480H120a40.045,40.045,0,0,1-40-40V368H432v72A40.045,40.045,0,0,1,392,480Z"/><path d="M271.491,389.191a8,8,0,0,0-14.982,0l-24,64a8,8,0,0,0,14.982,5.618L251.544,448h24.912l4.054,10.809a8,8,0,1,0,14.98-5.618ZM257.544,432,264,414.784,270.456,432Z"/><path d="M352,384H320a8,8,0,0,0,0,16h8v56a8,8,0,0,0,16,0V400h8a8,8,0,0,0,0-16Z"/><path d="M176,384a8,8,0,0,0-8,8v64a8,8,0,0,0,8,8,40,40,0,0,0,0-80Zm8,62.629V401.371a24,24,0,0,1,0,45.258Z"/><circle cx="160" cy="184" r="8"/><circle cx="192" cy="184" r="8"/><circle cx="224" cy="184" r="8"/><circle cx="256" cy="184" r="8"/><circle cx="288" cy="184" r="8"/><circle cx="320" cy="184" r="8"/><circle cx="352" cy="184" r="8"/><circle cx="160" cy="152" r="8"/><circle cx="192" cy="152" r="8"/><circle cx="224" cy="152" r="8"/><circle cx="256" cy="152" r="8"/><circle cx="288" cy="152" r="8"/><circle cx="320" cy="152" r="8"/><circle cx="352" cy="152" r="8"/><circle cx="160" cy="216" r="8"/><circle cx="192" cy="216" r="8"/><circle cx="224" cy="216" r="8"/><circle cx="256" cy="216" r="8"/><circle cx="288" cy="216" r="8"/><circle cx="320" cy="216" r="8"/><circle cx="352" cy="216" r="8"/><circle cx="160" cy="248" r="8"/><circle cx="192" cy="248" r="8"/><circle cx="224" cy="248" r="8"/><circle cx="256" cy="248" r="8"/><circle cx="288" cy="248" r="8"/><circle cx="320" cy="248" r="8"/><circle cx="352" cy="248" r="8"/><circle cx="160" cy="280" r="8"/><circle cx="192" cy="280" r="8"/><circle cx="224" cy="280" r="8"/><circle cx="256" cy="280" r="8"/><circle cx="288" cy="280" r="8"/><circle cx="320" cy="280" r="8"/><circle cx="352" cy="280" r="8"/></svg>
