<?xml version="1.0"?>
<svg xmlns="http://www.w3.org/2000/svg" id="OutLine" viewBox="0 0 512 512" width="512" height="512"><path d="M349.657,18.343A8,8,0,0,0,344,16H120A56.063,56.063,0,0,0,64,72V440a56.063,56.063,0,0,0,56,56H392a56.063,56.063,0,0,0,56-56V120a8,8,0,0,0-2.343-5.657ZM352,43.313,420.687,112H392a40.045,40.045,0,0,1-40-40ZM120,32H336V72a56.063,56.063,0,0,0,56,56h40V352H80V72A40.045,40.045,0,0,1,120,32ZM392,480H120a40.045,40.045,0,0,1-40-40V368H432v72A40.045,40.045,0,0,1,392,480Z"/><path d="M168,384a8,8,0,0,0-8,8v64a8,8,0,0,0,8,8,40,40,0,0,0,0-80Zm8,62.629V401.371a24,24,0,0,1,0,45.258Z"/><path d="M360,416H344a8,8,0,0,0,0,16h7.049c-2.252,9.217-8.236,16-15.049,16-8.673,0-16-10.99-16-24s7.327-24,16-24a10.675,10.675,0,0,1,4.588,1.058,8,8,0,0,0,6.824-14.473A26.587,26.587,0,0,0,336,384c-17.645,0-32,17.944-32,40s14.355,40,32,40,32-17.944,32-40A8,8,0,0,0,360,416Z"/><path d="M280.992,384.062a8,8,0,0,0-8.93,6.946l-3.625,29-4.848-14.541a8,8,0,0,0-15.178,0l-4.848,14.541-3.625-29a8,8,0,1,0-15.876,1.984l8,64a8,8,0,0,0,15.527,1.538L256,433.3l8.411,25.232A8,8,0,0,0,272,464q.394,0,.793-.039a8,8,0,0,0,7.15-6.969l8-64A8,8,0,0,0,280.992,384.062Z"/><circle cx="256" cy="208" r="8"/><path d="M168,216h48v24a8,8,0,0,0,8,8h24v48a8,8,0,0,0,16,0V248h24a8,8,0,0,0,8-8V216h48a8,8,0,0,0,0-16H296V176a8,8,0,0,0-8-8H264V120a8,8,0,0,0-16,0v48H224a8,8,0,0,0-8,8v24H168a8,8,0,0,0,0,16Zm64-32h48v48H232Z"/></svg>
