<?xml version="1.0"?>
<svg xmlns="http://www.w3.org/2000/svg" id="OutLine" viewBox="0 0 512 512" width="512" height="512"><path d="M349.657,18.343A8,8,0,0,0,344,16H120A56.064,56.064,0,0,0,64,72V440a56.064,56.064,0,0,0,56,56H392a56.063,56.063,0,0,0,56-56V120a8,8,0,0,0-2.343-5.657ZM352,43.313,420.687,112H392a40.045,40.045,0,0,1-40-40ZM120,32H336V72a56.063,56.063,0,0,0,56,56h40V352H80V72A40.045,40.045,0,0,1,120,32ZM392,480H120a40.045,40.045,0,0,1-40-40V368H432v72A40.045,40.045,0,0,1,392,480Z"/><path d="M200,400a8,8,0,0,0,0-16H168a8,8,0,0,0-8,8v64a8,8,0,0,0,8,8h32a8,8,0,0,0,0-16H176V432h8a8,8,0,0,0,0-16h-8V400Z"/><path d="M344,448H320V392a8,8,0,0,0-16,0v64a8,8,0,0,0,8,8h32a8,8,0,0,0,0-16Z"/><path d="M281.608,384.164a8,8,0,0,0-8.961,4.685L256,427.691l-16.647-38.842A8,8,0,0,0,224,392v64a8,8,0,0,0,16,0V430.976l8.647,20.175a8,8,0,0,0,14.706,0L272,430.976V456a8,8,0,0,0,16,0V392A8,8,0,0,0,281.608,384.164Z"/><path d="M158.664,304H353.336A22.69,22.69,0,0,0,376,281.336V166.664A22.69,22.69,0,0,0,353.336,144H158.664A22.69,22.69,0,0,0,136,166.664V281.336A22.69,22.69,0,0,0,158.664,304Zm55.512-78.688L152,278.606V176.46ZM360,176.46V278.606l-62.176-53.294Zm-75,58.931L346.374,288H165.626L227,235.391l24.054,18.9a8,8,0,0,0,9.884,0ZM353.336,160a6.623,6.623,0,0,1,1.493.175L256,237.826l-98.829-77.651a6.623,6.623,0,0,1,1.493-.175Z"/></svg>
