<?xml version="1.0"?>
<svg xmlns="http://www.w3.org/2000/svg" id="OutLine" viewBox="0 0 512 512" width="512" height="512"><path d="M349.657,18.343A8,8,0,0,0,344,16H120A56.064,56.064,0,0,0,64,72V440a56.064,56.064,0,0,0,56,56H392a56.063,56.063,0,0,0,56-56V120a8,8,0,0,0-2.343-5.657ZM352,43.313,420.687,112H392a40.045,40.045,0,0,1-40-40ZM120,32H336V72a56.063,56.063,0,0,0,56,56h40V352H80V72A40.045,40.045,0,0,1,120,32ZM392,480H120a40.045,40.045,0,0,1-40-40V368H432v72A40.045,40.045,0,0,1,392,480Z"/><path d="M320,400h16a8,8,0,0,0,0-16H320a24,24,0,0,0,0,48,8,8,0,0,1,0,16H304a8,8,0,0,0,0,16h16a24,24,0,0,0,0-48,8,8,0,0,1,0-16Z"/><path d="M256,384H240a8,8,0,0,0-8,8v64a8,8,0,0,0,16,0V432h8a24,24,0,0,0,0-48Zm0,32h-8V400h8a8,8,0,0,1,0,16Z"/><path d="M208,400a8,8,0,0,0,0-16H176a8,8,0,0,0-8,8v64a8,8,0,0,0,8,8h32a8,8,0,0,0,0-16H184V432h8a8,8,0,0,0,0-16h-8V400Z"/><path d="M136,304h32a8,8,0,0,0,8-8V264a8,8,0,0,0-8-8h-7.7a108.543,108.543,0,0,1,23.243-60.222A95.362,95.362,0,0,1,232,163.3V168a8,8,0,0,0,8,8h32a8,8,0,0,0,8-8v-4.7a95.362,95.362,0,0,1,48.453,32.478A108.543,108.543,0,0,1,351.7,256H344a8,8,0,0,0-8,8v32a8,8,0,0,0,8,8h32a8,8,0,0,0,8-8V264a8,8,0,0,0-8-8h-8.277a124.673,124.673,0,0,0-26.8-70.241A114.451,114.451,0,0,0,311.887,160H360a8,8,0,0,0,0-16H280v-8a8,8,0,0,0-8-8H240a8,8,0,0,0-8,8v8H152a8,8,0,0,0,0,16h48.113a114.451,114.451,0,0,0-29.041,25.759A124.673,124.673,0,0,0,144.277,256H136a8,8,0,0,0-8,8v32A8,8,0,0,0,136,304Zm232-16H352V272h16ZM248,144h16v16H248ZM144,272h16v16H144Z"/></svg>
