<?xml version="1.0"?>
<svg xmlns="http://www.w3.org/2000/svg" id="OutLine" viewBox="0 0 512 512" width="512" height="512"><path d="M349.657,18.343A8,8,0,0,0,344,16H120A56.063,56.063,0,0,0,64,72V440a56.063,56.063,0,0,0,56,56H392a56.063,56.063,0,0,0,56-56V120a8,8,0,0,0-2.343-5.657ZM352,43.313,420.687,112H392a40.045,40.045,0,0,1-40-40ZM120,32H336V72a56.063,56.063,0,0,0,56,56h40V352H80V72A40.045,40.045,0,0,1,120,32ZM392,480H120a40.045,40.045,0,0,1-40-40V368H432v72A40.045,40.045,0,0,1,392,480Z"/><path d="M337.94,384.239a8,8,0,0,0-9.7,5.821L320,423.016l-8.239-32.956a8,8,0,1,0-15.522,3.88l16,64a8,8,0,0,0,15.522,0l16-64A8,8,0,0,0,337.94,384.239Z"/><path d="M272,448H248V392a8,8,0,0,0-16,0v64a8,8,0,0,0,8,8h32a8,8,0,0,0,0-16Z"/><path d="M208,384H176a8,8,0,0,0-8,8v64a8,8,0,0,0,16,0V432h8a8,8,0,0,0,0-16h-8V400h24a8,8,0,0,0,0-16Z"/><path d="M180.262,304H331.738A36.3,36.3,0,0,0,368,267.738V180.262A36.3,36.3,0,0,0,331.738,144H180.262A36.3,36.3,0,0,0,144,180.262v87.476A36.3,36.3,0,0,0,180.262,304ZM160,180.262A20.286,20.286,0,0,1,180.262,160H331.738A20.286,20.286,0,0,1,352,180.262v87.476A20.286,20.286,0,0,1,331.738,288H180.262A20.286,20.286,0,0,1,160,267.738Z"/><path d="M235.794,254.806a8,8,0,0,0,7.784.349l48-24a8,8,0,0,0,0-14.31l-48-24A8,8,0,0,0,232,200v48A8,8,0,0,0,235.794,254.806ZM248,212.944,270.111,224,248,235.056Z"/></svg>
