<?xml version="1.0"?>
<svg xmlns="http://www.w3.org/2000/svg" id="OutLine" viewBox="0 0 512 512" width="512" height="512"><path d="M349.657,18.343A8,8,0,0,0,344,16H120A56.063,56.063,0,0,0,64,72V440a56.063,56.063,0,0,0,56,56H392a56.063,56.063,0,0,0,56-56V120a8,8,0,0,0-2.343-5.657ZM352,43.313,420.687,112H392a40.045,40.045,0,0,1-40-40ZM120,32H336V72a56.063,56.063,0,0,0,56,56h40V352H80V72A40.045,40.045,0,0,1,120,32ZM392,480H120a40.045,40.045,0,0,1-40-40V368H432v72A40.045,40.045,0,0,1,392,480Z"/><path d="M216,416H200a8,8,0,0,0,0,16h7.049c-2.252,9.217-8.236,16-15.049,16-8.673,0-16-10.991-16-24s7.327-24,16-24a10.71,10.71,0,0,1,4.589,1.057,8,8,0,0,0,6.822-14.473A26.6,26.6,0,0,0,192,384c-17.645,0-32,17.944-32,40s14.355,40,32,40,32-17.944,32-40A8,8,0,0,0,216,416Z"/><path d="M280,400a8,8,0,0,0,0-16H248a8,8,0,0,0,0,16h8v48h-8a8,8,0,0,0,0,16h32a8,8,0,0,0,0-16h-8V400Z"/><path d="M344,384H312a8,8,0,0,0-8,8v64a8,8,0,0,0,16,0V432h8a8,8,0,0,0,0-16h-8V400h24a8,8,0,0,0,0-16Z"/><path d="M178.765,142.42a8,8,0,0,0,11.292-.692,88.911,88.911,0,0,1,10.205-9.829,8,8,0,0,0-10.145-12.374,105.136,105.136,0,0,0-12.045,11.6A8,8,0,0,0,178.765,142.42Z"/><path d="M201.122,279.184a8,8,0,0,0,2.925,10.929,104.005,104.005,0,0,0,15.129,7.178,8,8,0,0,0,5.666-14.963,87.887,87.887,0,0,1-12.791-6.07A8,8,0,0,0,201.122,279.184Z"/><path d="M221.819,118.266a7.971,7.971,0,0,0,2.848-.527,87.421,87.421,0,0,1,13.585-3.95,8,8,0,1,0-3.207-15.675,103.393,103.393,0,0,0-16.077,4.675,8,8,0,0,0,2.851,15.477Z"/><path d="M181.648,247.1a8,8,0,1,0-13.507,8.574,104.5,104.5,0,0,0,10.067,13.357A8,8,0,1,0,190.173,258.4,88.639,88.639,0,0,1,181.648,247.1Z"/><path d="M160.842,184.9a7.99,7.99,0,0,0,9.671-5.872,87.512,87.512,0,0,1,4.466-13.434,8,8,0,0,0-14.725-6.261,103.59,103.59,0,0,0-5.284,15.9A8,8,0,0,0,160.842,184.9Z"/><path d="M155.021,224.984a8,8,0,0,0,15.536-3.831,88.218,88.218,0,0,1-2.27-13.973,8,8,0,1,0-15.947,1.288A104.185,104.185,0,0,0,155.021,224.984Z"/><path d="M266.47,112.616a87.821,87.821,0,0,1,13.873,2.793,8,8,0,0,0,4.418-15.378,103.811,103.811,0,0,0-16.408-3.3,8,8,0,0,0-1.883,15.889Z"/><path d="M266.665,287.361a89.709,89.709,0,0,1-14.162.571,8,8,0,1,0-.623,15.988c1.365.053,2.751.08,4.12.08a105.523,105.523,0,0,0,12.583-.754,8,8,0,0,0-1.918-15.885Z"/><path d="M339.438,171.951a8,8,0,0,0,15.166-5.1,103.911,103.911,0,0,0-6.6-15.385,8,8,0,0,0-14.147,7.476A87.753,87.753,0,0,1,339.438,171.951Z"/><path d="M306.008,272.421a88.161,88.161,0,0,1-12.246,7.09,8,8,0,1,0,6.873,14.448,104.1,104.1,0,0,0,14.478-8.382,8,8,0,1,0-9.105-13.156Z"/><path d="M344.751,237.527a8,8,0,0,0-10.8,3.358,88.437,88.437,0,0,1-7.579,11.966,8,8,0,1,0,12.785,9.619,104.3,104.3,0,0,0,8.956-14.139A8,8,0,0,0,344.751,237.527Z"/><path d="M344,199.786V200a89.065,89.065,0,0,1-1.126,14.123,8,8,0,1,0,15.8,2.544A105.119,105.119,0,0,0,360,200c0-.036,0-.073,0-.109v-.1a8,8,0,0,0-16,0Z"/><path d="M305.854,127.473a88.855,88.855,0,0,1,10.986,8.945A8,8,0,0,0,327.9,124.86,104.765,104.765,0,0,0,314.93,114.3a8,8,0,0,0-9.076,13.177Z"/><path d="M227.794,161.2A8,8,0,0,0,224,168v64a8,8,0,0,0,11.578,7.155l64-32a8,8,0,0,0,0-14.31l-64-32A8,8,0,0,0,227.794,161.2ZM240,180.944,278.111,200,240,219.056Z"/></svg>
