<?xml version="1.0"?>
<svg xmlns="http://www.w3.org/2000/svg" id="OutLine" viewBox="0 0 512 512" width="512" height="512"><path d="M349.657,18.343A8,8,0,0,0,344,16H120A56.064,56.064,0,0,0,64,72V440a56.064,56.064,0,0,0,56,56H392a56.064,56.064,0,0,0,56-56V120a8,8,0,0,0-2.343-5.657ZM352,43.313,420.687,112H392a40.045,40.045,0,0,1-40-40ZM120,32H336V72a56.064,56.064,0,0,0,56,56h40V352H80V72A40.045,40.045,0,0,1,120,32ZM392,480H120a40.045,40.045,0,0,1-40-40V368H432v72A40.045,40.045,0,0,1,392,480Z"/><path d="M168,384a8,8,0,0,0-8,8v24H144V392a8,8,0,0,0-16,0v64a8,8,0,0,0,16,0V432h16v24a8,8,0,0,0,16,0V392A8,8,0,0,0,168,384Z"/><path d="M232,384H200a8,8,0,0,0,0,16h8v56a8,8,0,0,0,16,0V400h8a8,8,0,0,0,0-16Z"/><path d="M313.838,384.214a8,8,0,0,0-8.993,4.208L288,422.111l-16.845-33.689A8,8,0,0,0,256,392v64a8,8,0,0,0,16,0V425.889l8.845,17.689a8,8,0,0,0,14.31,0L304,425.889V456a8,8,0,0,0,16,0V392A8,8,0,0,0,313.838,384.214Z"/><path d="M376,448H352V392a8,8,0,0,0-16,0v64a8,8,0,0,0,8,8h32a8,8,0,0,0,0-16Z"/><path d="M194.343,261.657a8,8,0,1,0,11.314-11.314L163.313,208l42.344-42.343a8,8,0,0,0-11.314-11.314l-48,48a8,8,0,0,0,0,11.314Z"/><path d="M306.343,261.657a8,8,0,0,0,11.314,0l48-48a8,8,0,0,0,0-11.314l-48-48a8,8,0,0,0-11.314,11.314L348.687,208l-42.344,42.343A8,8,0,0,0,306.343,261.657Z"/><path d="M229.47,287.589a7.991,7.991,0,0,0,10.119-5.059l48-144a8,8,0,1,0-15.178-5.06l-48,144A8,8,0,0,0,229.47,287.589Z"/></svg>
