<svg id="OutLine" height="512" viewBox="0 0 512 512" width="512" xmlns="http://www.w3.org/2000/svg"><path d="m349.657 18.343a8 8 0 0 0 -5.657-2.343h-224a56.063 56.063 0 0 0 -56 56v368a56.063 56.063 0 0 0 56 56h272a56.063 56.063 0 0 0 56-56v-320a8 8 0 0 0 -2.343-5.657zm2.343 24.97 68.687 68.687h-28.687a40.045 40.045 0 0 1 -40-40zm-232-11.313h216v40a56.063 56.063 0 0 0 56 56h40v224h-352v-280a40.045 40.045 0 0 1 40-40zm272 448h-272a40.045 40.045 0 0 1 -40-40v-72h352v72a40.045 40.045 0 0 1 -40 40z"/><path d="m200 400a8 8 0 0 0 0-16h-32a8 8 0 0 0 0 16h8v48h-8a8 8 0 0 0 0 16h32a8 8 0 0 0 0-16h-8v-48z"/><path d="m248 400h16a8 8 0 0 0 0-16h-16a24 24 0 0 0 0 48 8 8 0 0 1 0 16h-16a8 8 0 0 0 0 16h16a24 24 0 0 0 0-48 8 8 0 0 1 0-16z"/><path d="m320 384c-17.645 0-32 17.944-32 40s14.355 40 32 40 32-17.944 32-40-14.355-40-32-40zm0 64c-8.673 0-16-10.99-16-24s7.327-24 16-24 16 10.99 16 24-7.327 24-16 24z"/><path d="m256 304a104 104 0 1 0 -104-104 104.118 104.118 0 0 0 104 104zm0-192a88 88 0 1 1 -88 88 88.1 88.1 0 0 1 88-88z"/><path d="m256 224a24 24 0 1 0 -24-24 24.027 24.027 0 0 0 24 24zm0-32a8 8 0 1 1 -8 8 8.009 8.009 0 0 1 8-8z"/><path d="m256 272a8 8 0 0 0 0-16 56.063 56.063 0 0 1 -56-56 8 8 0 0 0 -16 0 72.081 72.081 0 0 0 72 72z"/></svg>