<?xml version="1.0"?>
<svg xmlns="http://www.w3.org/2000/svg" id="OutLine" viewBox="0 0 512 512" width="512" height="512"><path d="M349.657,18.343A8,8,0,0,0,344,16H120A56.063,56.063,0,0,0,64,72V440a56.063,56.063,0,0,0,56,56H392a56.063,56.063,0,0,0,56-56V120a8,8,0,0,0-2.343-5.657ZM352,43.313,420.687,112H392a40.045,40.045,0,0,1-40-40ZM120,32H336V72a56.063,56.063,0,0,0,56,56h40V352H80V72A40.045,40.045,0,0,1,120,32ZM392,480H120a40.045,40.045,0,0,1-40-40V368H432v72A40.045,40.045,0,0,1,392,480Z"/><path d="M263.491,389.191a8,8,0,0,0-14.982,0l-24,64a8,8,0,0,0,14.982,5.618L243.544,448h24.912l4.053,10.809a8,8,0,0,0,14.981-5.618ZM249.544,432,256,414.784,262.456,432Z"/><path d="M331.107,431.792A24,24,0,0,0,328,384H312a8,8,0,0,0-8,8v64a8,8,0,0,0,16,0V443.314l18.343,18.343a8,8,0,0,0,11.314-11.314ZM320,400h8a8,8,0,0,1,0,16h-8Z"/><path d="M200,384a8,8,0,0,0-8,8v48a8,8,0,0,1-16,0,8,8,0,0,0-16,0,24,24,0,0,0,48,0V392A8,8,0,0,0,200,384Z"/><path d="M240,272a87.86,87.86,0,0,0,67.833-32H316a44.049,44.049,0,0,0,44-44,20.023,20.023,0,0,0-20-20H160a8,8,0,0,0-8,8A88.1,88.1,0,0,0,240,272Zm104-76a28.033,28.033,0,0,1-25.572,27.888,87.346,87.346,0,0,0,9.2-31.888H340A4,4,0,0,1,344,196Zm-32.441-4a72.005,72.005,0,0,1-143.118,0Z"/><path d="M208,160h24a24,24,0,0,0,0-48,8,8,0,0,1,0-16,8,8,0,0,0,0-16,24,24,0,0,0,0,48,8,8,0,0,1,0,16H208a8,8,0,0,0,0,16Z"/><path d="M280,144a8,8,0,0,0,0,16,24,24,0,0,0,0-48,8,8,0,0,0,0,16,8,8,0,0,1,0,16Z"/><path d="M304,288H176a8,8,0,0,0,0,16H304a8,8,0,0,0,0-16Z"/></svg>
