<?xml version="1.0"?>
<svg xmlns="http://www.w3.org/2000/svg" id="OutLine" viewBox="0 0 512 512" width="512" height="512"><path d="M349.657,18.343A8,8,0,0,0,344,16H120A56.063,56.063,0,0,0,64,72V440a56.063,56.063,0,0,0,56,56H392a56.063,56.063,0,0,0,56-56V120a8,8,0,0,0-2.343-5.657ZM352,43.313,420.687,112H392a40.045,40.045,0,0,1-40-40ZM120,32H336V72a56.063,56.063,0,0,0,56,56h40V352H80V72A40.045,40.045,0,0,1,120,32ZM392,480H120a40.045,40.045,0,0,1-40-40V368H432v72A40.045,40.045,0,0,1,392,480Z"/><path d="M216,384H200a8,8,0,0,0-8,8v64a8,8,0,0,0,16,0V432h8a24,24,0,0,0,0-48Zm0,32h-8V400h8a8,8,0,0,1,0,16Z"/><path d="M168,384a8,8,0,0,0-8,8v48a8,8,0,0,1-16,0,8,8,0,0,0-16,0,24,24,0,0,0,48,0V392A8,8,0,0,0,168,384Z"/><path d="M296,400a8,8,0,0,0,0-16H264a8,8,0,0,0-8,8v64a8,8,0,0,0,8,8h32a8,8,0,0,0,0-16H272V432h8a8,8,0,0,0,0-16h-8V400Z"/><path d="M376,416H360a8,8,0,0,0,0,16h7.049c-2.252,9.217-8.236,16-15.049,16-8.673,0-16-10.99-16-24s7.327-24,16-24a10.675,10.675,0,0,1,4.588,1.058,8,8,0,0,0,6.824-14.473A26.587,26.587,0,0,0,352,384c-17.645,0-32,17.944-32,40s14.355,40,32,40,32-17.944,32-40A8,8,0,0,0,376,416Z"/><path d="M216,176a24,24,0,1,0-24-24A24.027,24.027,0,0,0,216,176Zm0-32a8,8,0,1,1-8,8A8.009,8.009,0,0,1,216,144Z"/><path d="M152,304H360a8,8,0,0,0,6.973-11.922l-72-128a8,8,0,0,0-13.946,0l-44.379,78.9-22.094-31.563a8,8,0,0,0-13.108,0l-56,80A8,8,0,0,0,152,304ZM288,184.317,346.321,288H268.165l-21.339-30.484ZM208,229.95,248.635,288h-81.27Z"/></svg>
