<?xml version="1.0"?>
<svg xmlns="http://www.w3.org/2000/svg" id="OutLine" viewBox="0 0 512 512" width="512" height="512"><path d="M349.657,18.343A8,8,0,0,0,344,16H120A56.063,56.063,0,0,0,64,72V440a56.063,56.063,0,0,0,56,56H392a56.063,56.063,0,0,0,56-56V120a8,8,0,0,0-2.343-5.657ZM352,43.313,420.687,112H392a40.045,40.045,0,0,1-40-40ZM120,32H336V72a56.063,56.063,0,0,0,56,56h40V352H80V72A40.045,40.045,0,0,1,120,32ZM392,480H120a40.045,40.045,0,0,1-40-40V368H432v72A40.045,40.045,0,0,1,392,480Z"/><path d="M240,384a8,8,0,0,0-8,8v48a8,8,0,0,1-16,0,8,8,0,0,0-16,0,24,24,0,0,0,48,0V392A8,8,0,0,0,240,384Z"/><path d="M288,400h16a8,8,0,0,0,0-16H288a24,24,0,0,0,0,48,8,8,0,0,1,0,16H272a8,8,0,0,0,0,16h16a24,24,0,0,0,0-48,8,8,0,0,1,0-16Z"/><circle cx="288" cy="216" r="8"/><circle cx="224" cy="216" r="8"/><circle cx="256" cy="216" r="8"/><path d="M152,224a8.009,8.009,0,0,1,8,8v32a24.028,24.028,0,0,0,24,24,8,8,0,0,0,0-16,8.009,8.009,0,0,1-8-8V232a23.9,23.9,0,0,0-6.126-16A23.9,23.9,0,0,0,176,200V168a8.009,8.009,0,0,1,8-8,8,8,0,0,0,0-16,24.028,24.028,0,0,0-24,24v32a8.009,8.009,0,0,1-8,8,8,8,0,0,0,0,16Z"/><path d="M336,264a8.009,8.009,0,0,1-8,8,8,8,0,0,0,0,16,24.028,24.028,0,0,0,24-24V232a8.009,8.009,0,0,1,8-8,8,8,0,0,0,0-16,8.009,8.009,0,0,1-8-8V168a24.028,24.028,0,0,0-24-24,8,8,0,0,0,0,16,8.009,8.009,0,0,1,8,8v32a23.9,23.9,0,0,0,6.126,16A23.9,23.9,0,0,0,336,232Z"/></svg>
