<?xml version="1.0"?>
<svg xmlns="http://www.w3.org/2000/svg" id="OutLine" viewBox="0 0 512 512" width="512" height="512"><path d="M349.657,18.343A8,8,0,0,0,344,16H120A56.063,56.063,0,0,0,64,72V440a56.063,56.063,0,0,0,56,56H392a56.063,56.063,0,0,0,56-56V120a8,8,0,0,0-2.343-5.657ZM352,43.313,420.687,112H392a40.045,40.045,0,0,1-40-40ZM120,32H336V72a56.063,56.063,0,0,0,56,56h40V352H80V72A40.045,40.045,0,0,1,120,32ZM392,480H120a40.045,40.045,0,0,1-40-40V368H432v72A40.045,40.045,0,0,1,392,480Z"/><path d="M328,384H312a8,8,0,0,0-8,8v64a8,8,0,0,0,8,8h16a23.984,23.984,0,0,0,17.869-40A23.984,23.984,0,0,0,328,384Zm-8,16h8a8,8,0,0,1,0,16h-8Zm8,48h-8V432h8a8,8,0,0,1,0,16Z"/><path d="M248,384a8,8,0,0,0-8,8v64a8,8,0,0,0,8,8,40,40,0,0,0,0-80Zm8,62.629V401.371a24,24,0,0,1,0,45.258Z"/><path d="M200,304a71.93,71.93,0,0,0,67.821-48H360a8,8,0,0,0,7.155-4.422l16-32A8,8,0,0,0,376,208H352V184a8,8,0,0,0-8-8H312a8,8,0,0,0-8,8v24H267.821A71.975,71.975,0,1,0,200,304Zm0-128a55.937,55.937,0,0,1,54.156,42,8,8,0,0,0,7.746,6H312a8,8,0,0,0,8-8V192h16v24a8,8,0,0,0,8,8h19.056l-8,16H261.9a8,8,0,0,0-7.746,6A55.972,55.972,0,1,1,200,176Z"/><path d="M200,256a24,24,0,1,0-24-24A24.027,24.027,0,0,0,200,256Zm0-32a8,8,0,1,1-8,8A8.009,8.009,0,0,1,200,224Z"/><path d="M217.838,384.214a8,8,0,0,0-8.993,4.208L192,422.111l-16.845-33.689A8,8,0,0,0,160,392v64a8,8,0,0,0,16,0V425.889l8.845,17.689a8,8,0,0,0,14.31,0L208,425.889V456a8,8,0,0,0,16,0V392A8,8,0,0,0,217.838,384.214Z"/></svg>
