<?xml version="1.0"?>
<svg xmlns="http://www.w3.org/2000/svg" id="OutLine" viewBox="0 0 512 512" width="512" height="512"><path d="M349.657,18.343A8,8,0,0,0,344,16H120A56.064,56.064,0,0,0,64,72V440a56.064,56.064,0,0,0,56,56H392a56.064,56.064,0,0,0,56-56V120a8,8,0,0,0-2.343-5.657ZM352,43.313,420.687,112H392a40.045,40.045,0,0,1-40-40ZM120,32H336V72a56.064,56.064,0,0,0,56,56h40V352H80V72A40.045,40.045,0,0,1,120,32ZM392,480H120a40.045,40.045,0,0,1-40-40V368H432v72A40.045,40.045,0,0,1,392,480Z"/><path d="M264,384c-17.645,0-32,17.944-32,40s14.355,40,32,40,32-17.944,32-40S281.645,384,264,384Zm0,64c-8.673,0-16-10.991-16-24s7.327-24,16-24,16,10.991,16,24S272.673,448,264,448Z"/><path d="M353.94,384.239a8,8,0,0,0-9.7,5.821L336,423.015l-8.239-32.955a8,8,0,1,0-15.522,3.88l16,64a8,8,0,0,0,15.522,0l16-64A8,8,0,0,0,353.94,384.239Z"/><path d="M209.838,384.214a8,8,0,0,0-8.993,4.208L184,422.111l-16.845-33.689A8,8,0,0,0,152,392v64a8,8,0,0,0,16,0V425.889l8.845,17.689a8,8,0,0,0,14.31,0L200,425.889V456a8,8,0,0,0,16,0V392A8,8,0,0,0,209.838,384.214Z"/><path d="M291.578,200.845l-48-24A8,8,0,0,0,232,184v48a8,8,0,0,0,11.578,7.155l48-24a8,8,0,0,0,0-14.31ZM248,219.056V196.944L270.111,208Z"/><path d="M160,296a8,8,0,0,0,8,8H344a8,8,0,0,0,0-16V272a8,8,0,0,0,8-8V152a8,8,0,0,0-8-8V128a8,8,0,0,0,0-16H168a8,8,0,0,0,0,16v16a8,8,0,0,0-8,8V264a8,8,0,0,0,8,8v16A8,8,0,0,0,160,296Zm16-40V160H336v96ZM280,144V128h16v16Zm-16,0H248V128h16Zm-32,0H216V128h16Zm32,128v16H248V272Zm16,0h16v16H280Zm-48,0v16H216V272Zm96,16H312V272h16Zm0-144H312V128h16ZM184,128h16v16H184Zm0,144h16v16H184Z"/></svg>
