<?xml version="1.0"?>
<svg xmlns="http://www.w3.org/2000/svg" id="OutLine" viewBox="0 0 512 512" width="512" height="512"><path d="M349.657,18.343A8,8,0,0,0,344,16H120A56.064,56.064,0,0,0,64,72V440a56.064,56.064,0,0,0,56,56H392a56.063,56.063,0,0,0,56-56V120a8,8,0,0,0-2.343-5.657ZM352,43.313,420.687,112H392a40.045,40.045,0,0,1-40-40ZM120,32H336V72a56.063,56.063,0,0,0,56,56h40V352H80V72A40.045,40.045,0,0,1,120,32ZM392,480H120a40.045,40.045,0,0,1-40-40V368H432v72A40.045,40.045,0,0,1,392,480Z"/><path d="M216,384a7.976,7.976,0,0,0-5.661,2.347L192,404.687l-18.343-18.344A8,8,0,0,0,160,392v64a8,8,0,0,0,16,0V411.313l10.343,10.344a8,8,0,0,0,11.314,0L208,411.313V456a8,8,0,0,0,16,0V392A8,8,0,0,0,216,384Z"/><path d="M264,384H248a8,8,0,0,0-8,8v64a8,8,0,0,0,16,0V432h8a24,24,0,0,0,0-48Zm0,32h-8V400h8a8,8,0,0,1,0,16Z"/><path d="M328,384H312a8,8,0,0,0,0,16h16a8,8,0,0,1,0,16H312a8,8,0,0,0,0,16h16a8,8,0,0,1,0,16H312a8,8,0,0,0,0,16h16a23.984,23.984,0,0,0,17.869-40A23.984,23.984,0,0,0,328,384Z"/><path d="M184,304a40.045,40.045,0,0,0,40-40V174.938l96-13.714v54.8A39.985,39.985,0,1,0,336,248V120a8,8,0,0,0-9.132-7.919l-112,16A8,8,0,0,0,208,136v96.022A39.993,39.993,0,1,0,184,304Zm112-32a24,24,0,1,1,24-24A24.028,24.028,0,0,1,296,272Zm24-142.776v15.838l-96,13.714V142.938ZM184,240a24,24,0,1,1-24,24A24.028,24.028,0,0,1,184,240Z"/></svg>
