<?xml version="1.0"?>
<svg xmlns="http://www.w3.org/2000/svg" id="OutLine" viewBox="0 0 512 512" width="512" height="512"><path d="M349.657,18.343A8,8,0,0,0,344,16H120A56.063,56.063,0,0,0,64,72V440a56.063,56.063,0,0,0,56,56H392a56.063,56.063,0,0,0,56-56V120a8,8,0,0,0-2.343-5.657ZM352,43.313,420.687,112H392a40.045,40.045,0,0,1-40-40ZM120,32H336V72a56.063,56.063,0,0,0,56,56h40V352H80V72A40.045,40.045,0,0,1,120,32ZM392,480H120a40.045,40.045,0,0,1-40-40V368H432v72A40.045,40.045,0,0,1,392,480Z"/><path d="M216,384a7.979,7.979,0,0,0-5.657,2.343h0L192,404.687l-18.343-18.344A8,8,0,0,0,160,392v64a8,8,0,0,0,16,0V411.313l10.343,10.344a8,8,0,0,0,11.314,0L208,411.314V456a8,8,0,0,0,16,0V392A8,8,0,0,0,216,384Z"/><path d="M264,384H248a8,8,0,0,0-8,8v64a8,8,0,0,0,16,0V432h8a24,24,0,0,0,0-48Zm0,32h-8V400h8a8,8,0,0,1,0,16Z"/><path d="M344,384a8,8,0,0,0-8,8v24H320V392a8,8,0,0,0-16,0v32a8,8,0,0,0,8,8h24v24a8,8,0,0,0,16,0V392A8,8,0,0,0,344,384Z"/><path d="M256,304A104,104,0,1,0,152,200,104.118,104.118,0,0,0,256,304Zm0-192a88,88,0,1,1-88,88A88.1,88.1,0,0,1,256,112Z"/><path d="M227.794,238.805a8,8,0,0,0,7.784.35l64-32a8,8,0,0,0,0-14.31l-64-32A8,8,0,0,0,224,168v64A8,8,0,0,0,227.794,238.805ZM240,180.944,278.111,200,240,219.056Z"/></svg>
