<?xml version="1.0"?>
<svg xmlns="http://www.w3.org/2000/svg" id="OutLine" viewBox="0 0 512 512" width="512" height="512"><path d="M349.657,18.343A8,8,0,0,0,344,16H120A56.063,56.063,0,0,0,64,72V440a56.063,56.063,0,0,0,56,56H392a56.063,56.063,0,0,0,56-56V120a8,8,0,0,0-2.343-5.657ZM352,43.313,420.687,112H392a40.045,40.045,0,0,1-40-40ZM120,32H336V72a56.063,56.063,0,0,0,56,56h40V352H80V72A40.045,40.045,0,0,1,120,32ZM392,480H120a40.045,40.045,0,0,1-40-40V368H432v72A40.045,40.045,0,0,1,392,480Z"/><path d="M344,384a8,8,0,0,0-8,8v48a8,8,0,0,1-16,0,8,8,0,0,0-16,0,24,24,0,0,0,48,0V392A8,8,0,0,0,344,384Z"/><path d="M264,384H248a8,8,0,0,0-8,8v64a8,8,0,0,0,8,8h16a23.984,23.984,0,0,0,17.869-40A23.984,23.984,0,0,0,264,384Zm-8,16h8a8,8,0,0,1,0,16h-8Zm8,48h-8V432h8a8,8,0,0,1,0,16Z"/><path d="M192,384c-17.645,0-32,17.944-32,40s14.355,40,32,40,32-17.944,32-40S209.645,384,192,384Zm0,64c-8.673,0-16-10.99-16-24s7.327-24,16-24,16,10.99,16,24S200.673,448,192,448Z"/><path d="M200,240v56a8,8,0,0,0,8,8h96a8,8,0,0,0,8-8V240h48a8,8,0,0,0,7.155-11.578l-48-96a8,8,0,0,0-14.31,0L275.056,192H255.419A56,56,0,1,0,200,240Zm112-86.111L347.056,224H312V200a8,8,0,0,0-8-8H292.944ZM284.944,208H296v16H276.944Zm-17.888,0-10.211,20.422A8,8,0,0,0,264,240h32v48H216V237.659A56.261,56.261,0,0,0,250.586,208ZM216,220.65V208h15.978A40.228,40.228,0,0,1,216,220.65ZM200,144A40.014,40.014,0,0,1,239.2,192H208a8,8,0,0,0-8,8v24a40,40,0,0,1,0-80Z"/></svg>
