<svg id="OutLine" height="512" viewBox="0 0 512 512" width="512" xmlns="http://www.w3.org/2000/svg"><path d="m349.657 18.343a8 8 0 0 0 -5.657-2.343h-224a56.064 56.064 0 0 0 -56 56v368a56.064 56.064 0 0 0 56 56h272a56.064 56.064 0 0 0 56-56v-320a8 8 0 0 0 -2.343-5.657zm2.343 24.97 68.687 68.687h-28.687a40.045 40.045 0 0 1 -40-40zm-232-11.313h216v40a56.064 56.064 0 0 0 56 56h40v224h-352v-280a40.045 40.045 0 0 1 40-40zm272 448h-272a40.045 40.045 0 0 1 -40-40v-72h352v72a40.045 40.045 0 0 1 -40 40z"/><path d="m192 384c-17.645 0-32 17.944-32 40s14.355 40 32 40 32-17.944 32-40-14.355-40-32-40zm0 64c-8.673 0-16-10.991-16-24s7.327-24 16-24 16 10.991 16 24-7.327 24-16 24z"/><path d="m344 384h-32a8 8 0 0 0 -8 8v64a8 8 0 0 0 16 0v-24h8a8 8 0 0 0 0-16h-8v-16h24a8 8 0 0 0 0-16z"/><path d="m280 384h-32a8 8 0 0 0 0 16h8v56a8 8 0 0 0 16 0v-56h8a8 8 0 0 0 0-16z"/><path d="m168 176a8 8 0 0 0 8-8v-8h48v128h-8a8 8 0 0 0 0 16h32a8 8 0 0 0 0-16h-8v-128h48v8a8 8 0 0 0 16 0v-16a8 8 0 0 0 -8-8h-128a8 8 0 0 0 -8 8v16a8 8 0 0 0 8 8z"/><path d="m304 200a8 8 0 0 0 -16 0v16h-16a8 8 0 0 0 0 16h16v40a32 32 0 0 0 64 0 8 8 0 0 0 -16 0 16 16 0 0 1 -32 0v-40h16a8 8 0 0 0 0-16h-16z"/></svg>