<?xml version="1.0"?>
<svg xmlns="http://www.w3.org/2000/svg" id="OutLine" viewBox="0 0 512 512" width="512" height="512"><path d="M349.657,18.343A8,8,0,0,0,344,16H120A56.063,56.063,0,0,0,64,72V440a56.063,56.063,0,0,0,56,56H392a56.063,56.063,0,0,0,56-56V120a8,8,0,0,0-2.343-5.657ZM352,43.313,420.687,112H392a40.045,40.045,0,0,1-40-40ZM120,32H336V72a56.063,56.063,0,0,0,56,56h40V352H80V72A40.045,40.045,0,0,1,120,32ZM392,480H120a40.045,40.045,0,0,1-40-40V368H432v72A40.045,40.045,0,0,1,392,480Z"/><path d="M160,304a8,8,0,0,0,8-8c0-3.082,3.692-6.843,9.637-9.815C185.5,282.254,196.564,280,208,280s22.5,2.254,30.363,6.185C244.308,289.157,248,292.918,248,296a8,8,0,0,0,16,0c0-3.082,3.692-6.843,9.637-9.815C281.5,282.254,292.564,280,304,280s22.5,2.254,30.363,6.185C340.308,289.157,344,292.918,344,296a8,8,0,0,0,16,0V176c0-18.243-24.075-32-56-32-20.861,0-38.37,5.873-48,15.034C246.37,149.873,228.861,144,208,144c-31.925,0-56,13.757-56,32V296A8,8,0,0,0,160,304ZM273.637,166.185C281.5,162.254,292.564,160,304,160s22.5,2.254,30.363,6.185C340.308,169.157,344,172.918,344,176v97.175c-10.011-5.73-24.022-9.175-40-9.175s-29.988,3.458-40,9.192V176C264,172.918,267.692,169.157,273.637,166.185ZM168,176c0-3.082,3.692-6.843,9.637-9.815C185.5,162.254,196.564,160,208,160s22.5,2.254,30.363,6.185C244.308,169.157,248,172.918,248,176v97.192C237.988,267.458,223.986,264,208,264s-29.989,3.445-40,9.175Z"/><path d="M320,384H304a8,8,0,0,0-8,8v64a8,8,0,0,0,8,8h16a23.984,23.984,0,0,0,17.869-40A23.984,23.984,0,0,0,320,384Zm-8,16h8a8,8,0,0,1,0,16h-8Zm8,48h-8V432h8a8,8,0,0,1,0,16Z"/><path d="M192,384H176a8,8,0,0,0-8,8v64a8,8,0,0,0,16,0V432h8a24,24,0,0,0,0-48Zm0,32h-8V400h8a8,8,0,0,1,0,16Z"/><path d="M272,384a8,8,0,0,0-8,8v48a8,8,0,0,1-16,0V392a8,8,0,0,0-16,0v48a24,24,0,0,0,48,0V392A8,8,0,0,0,272,384Z"/></svg>
