<?xml version="1.0"?>
<svg xmlns="http://www.w3.org/2000/svg" id="OutLine" viewBox="0 0 512 512" width="512" height="512"><path d="M349.657,18.343A8,8,0,0,0,344,16H120A56.064,56.064,0,0,0,64,72V440a56.064,56.064,0,0,0,56,56H392a56.063,56.063,0,0,0,56-56V120a8,8,0,0,0-2.343-5.657ZM352,43.313,420.687,112H392a40.045,40.045,0,0,1-40-40ZM120,32H336V72a56.063,56.063,0,0,0,56,56h40V352H80V72A40.045,40.045,0,0,1,120,32ZM392,480H120a40.045,40.045,0,0,1-40-40V368H432v72A40.045,40.045,0,0,1,392,480Z"/><path d="M184,400h16a8,8,0,0,0,0-16H184a24,24,0,0,0,0,48,8,8,0,0,1,0,16H168a8,8,0,0,0,0,16h16a24,24,0,0,0,0-48,8,8,0,0,1,0-16Z"/><path d="M344,448H320V392a8,8,0,0,0-16,0v64a8,8,0,0,0,8,8h32a8,8,0,0,0,0-16Z"/><path d="M282.214,446.9A46.906,46.906,0,0,0,288,424c0-22.056-14.355-40-32-40s-32,17.944-32,40,14.355,40,32,40a27.027,27.027,0,0,0,15.6-5.09l2.747,2.747a8,8,0,0,0,11.314-11.314ZM256,448c-8.673,0-16-10.991-16-24s7.327-24,16-24,16,10.991,16,24a33.122,33.122,0,0,1-1.807,10.879l-8.536-8.536a8,8,0,0,0-11.314,11.314l9.58,9.58A10.644,10.644,0,0,1,256,448Z"/><path d="M203.353,299.123C217.505,302.268,236.2,304,256,304s38.5-1.732,52.647-4.877C320.39,296.514,336,291.692,336,280V136c0-11.692-15.61-16.514-27.353-19.123C294.5,113.732,275.8,112,256,112s-38.5,1.732-52.647,4.877C191.611,119.486,176,124.308,176,136V280C176,291.692,191.611,296.514,203.353,299.123ZM256,288c-36.744,0-59.127-6.054-64-9.622V247.955a95.079,95.079,0,0,0,11.353,3.168C217.505,254.268,236.2,256,256,256s38.5-1.732,52.647-4.877A95.079,95.079,0,0,0,320,247.955v30.423C315.127,281.946,292.743,288,256,288Zm-64-88.045a95.079,95.079,0,0,0,11.353,3.168C217.505,206.268,236.2,208,256,208s38.5-1.732,52.647-4.877A95.079,95.079,0,0,0,320,199.955v30.416c-4.847,3.566-27.226,9.629-64,9.629s-59.153-6.063-64-9.629Zm0-48a95.079,95.079,0,0,0,11.353,3.168C217.505,158.268,236.2,160,256,160s38.5-1.732,52.647-4.877A95.079,95.079,0,0,0,320,151.955v30.416c-4.847,3.566-27.226,9.629-64,9.629s-59.153-6.063-64-9.629ZM256,128c31.6,0,52.575,4.478,60.932,8-8.357,3.522-29.335,8-60.932,8s-52.576-4.478-60.931-8C203.424,132.478,224.4,128,256,128Z"/></svg>
