<?xml version="1.0"?>
<svg xmlns="http://www.w3.org/2000/svg" id="OutLine" viewBox="0 0 512 512" width="512" height="512"><path d="M349.657,18.343A8,8,0,0,0,344,16H120A56.063,56.063,0,0,0,64,72V440a56.063,56.063,0,0,0,56,56H392a56.063,56.063,0,0,0,56-56V120a8,8,0,0,0-2.343-5.657ZM352,43.313,420.687,112H392a40.045,40.045,0,0,1-40-40ZM120,32H336V72a56.063,56.063,0,0,0,56,56h40V352H80V72A40.045,40.045,0,0,1,120,32ZM392,480H120a40.045,40.045,0,0,1-40-40V368H432v72A40.045,40.045,0,0,1,392,480Z"/><path d="M192,400h16a8,8,0,0,0,0-16H192a24,24,0,0,0,0,48,8,8,0,0,1,0,16H176a8,8,0,0,0,0,16h16a24,24,0,0,0,0-48,8,8,0,0,1,0-16Z"/><path d="M259.106,431.792A24,24,0,0,0,256,384H240a8,8,0,0,0-8,8v64a8,8,0,0,0,16,0V443.314l18.343,18.343a8,8,0,0,0,11.314-11.314ZM248,400h8a8,8,0,0,1,0,16h-8Z"/><path d="M336,384H304a8,8,0,0,0,0,16h8v56h.007a7.993,7.993,0,1,0,15.986,0H328V400h8a8,8,0,0,0,0-16Z"/><path d="M312,256H200a8,8,0,0,0,0,16H312a8,8,0,0,0,0-16Z"/><path d="M160,304H352a8,8,0,0,0,8-8V152a8,8,0,0,0-8-8H160a8,8,0,0,0-8,8V296A8,8,0,0,0,160,304Zm8-16V192H344v96ZM300.944,176l-8-16h14.112l8,16Zm-17.888,0H268.944l-8-16h14.112Zm-32,0H236.944l-8-16h14.112Zm-32,0H204.944l-8-16h14.112ZM344,176H332.944l-8-16H344ZM179.056,160l8,16H168V160Z"/></svg>
