<svg id="OutLine" height="512" viewBox="0 0 512 512" width="512" xmlns="http://www.w3.org/2000/svg"><path d="m349.657 18.343a8 8 0 0 0 -5.657-2.343h-224a56.063 56.063 0 0 0 -56 56v368a56.063 56.063 0 0 0 56 56h272a56.063 56.063 0 0 0 56-56v-320a8 8 0 0 0 -2.343-5.657zm2.343 24.97 68.687 68.687h-28.687a40.045 40.045 0 0 1 -40-40zm-232-11.313h216v40a56.063 56.063 0 0 0 56 56h40v224h-352v-280a40.045 40.045 0 0 1 40-40zm272 448h-272a40.045 40.045 0 0 1 -40-40v-72h352v72a40.045 40.045 0 0 1 -40 40z"/><path d="m353.94 384.239a8 8 0 0 0 -9.7 5.821l-8.24 32.956-8.239-32.956a8 8 0 1 0 -15.522 3.88l16 64a8 8 0 0 0 15.522 0l16-64a8 8 0 0 0 -5.821-9.701z"/><path d="m271.491 389.191a8 8 0 0 0 -14.982 0l-24 64a8 8 0 0 0 14.982 5.618l4.053-10.809h24.912l4.053 10.809a8 8 0 0 0 14.982-5.618zm-13.947 42.809 6.456-17.216 6.456 17.216z"/><path d="m208.992 384.062a8 8 0 0 0 -8.93 6.946l-3.625 29-4.848-14.541a8 8 0 0 0 -15.178 0l-4.848 14.541-3.625-29a8 8 0 1 0 -15.876 1.984l8 64a8 8 0 0 0 15.527 1.538l8.411-25.23 8.411 25.232a8 8 0 0 0 7.589 5.468q.394 0 .793-.039a8 8 0 0 0 7.15-6.969l8-64a8 8 0 0 0 -6.951-8.93z"/><path d="m192 304a8 8 0 0 0 8-8v-144a8 8 0 0 0 -16 0v144a8 8 0 0 0 8 8z"/><path d="m256 256a8 8 0 0 0 8-8v-48a8 8 0 0 0 -16 0v48a8 8 0 0 0 8 8z"/><path d="m160 272a8 8 0 0 0 8-8v-80a8 8 0 0 0 -16 0v80a8 8 0 0 0 8 8z"/><path d="m224 272a8 8 0 0 0 8-8v-80a8 8 0 0 0 -16 0v80a8 8 0 0 0 8 8z"/><path d="m320 304a8 8 0 0 0 8-8v-144a8 8 0 0 0 -16 0v144a8 8 0 0 0 8 8z"/><path d="m352 272a8 8 0 0 0 8-8v-80a8 8 0 0 0 -16 0v80a8 8 0 0 0 8 8z"/><path d="m288 272a8 8 0 0 0 8-8v-80a8 8 0 0 0 -16 0v80a8 8 0 0 0 8 8z"/><path d="m128 240a8 8 0 0 0 8-8v-16a8 8 0 0 0 -16 0v16a8 8 0 0 0 8 8z"/><path d="m384 240a8 8 0 0 0 8-8v-16a8 8 0 0 0 -16 0v16a8 8 0 0 0 8 8z"/></svg>