<?xml version="1.0"?>
<svg xmlns="http://www.w3.org/2000/svg" id="OutLine" viewBox="0 0 512 512" width="512" height="512"><path d="M349.657,18.343A8,8,0,0,0,344,16H120A56.063,56.063,0,0,0,64,72V440a56.063,56.063,0,0,0,56,56H392a56.063,56.063,0,0,0,56-56V120a8,8,0,0,0-2.343-5.657ZM352,43.313,420.687,112H392a40.045,40.045,0,0,1-40-40ZM120,32H336V72a56.063,56.063,0,0,0,56,56h40V352H80V72A40.045,40.045,0,0,1,120,32ZM392,480H120a40.045,40.045,0,0,1-40-40V368H432v72A40.045,40.045,0,0,1,392,480Z"/><path d="M240,448H216V392a8,8,0,0,0-16,0v64a8,8,0,0,0,8,8h32a8,8,0,0,0,0-16Z"/><path d="M179.578,384.845a8,8,0,0,0-10.733,3.577L160,406.111l-8.845-17.689a8,8,0,0,0-14.31,7.156L151.056,424l-14.211,28.422a8,8,0,1,0,14.31,7.156L160,441.889l8.845,17.689a8,8,0,1,0,14.31-7.156L168.944,424l14.211-28.422A8,8,0,0,0,179.578,384.845Z"/><path d="M371.578,384.845a8,8,0,0,0-10.733,3.577L352,406.111l-8.845-17.689a8,8,0,0,0-14.31,7.156L343.056,424l-14.211,28.422a8,8,0,1,0,14.31,7.156L352,441.889l8.845,17.689a8,8,0,1,0,14.31-7.156L360.944,424l14.211-28.422A8,8,0,0,0,371.578,384.845Z"/><path d="M288,400h16a8,8,0,0,0,0-16H288a24,24,0,0,0,0,48,8,8,0,0,1,0,16H272a8,8,0,0,0,0,16h16a24,24,0,0,0,0-48,8,8,0,0,1,0-16Z"/><path d="M128,304H384a8,8,0,0,0,8-8V152a8,8,0,0,0-8-8H200V104a8,8,0,0,0-8-8H128a8,8,0,0,0-8,8V296A8,8,0,0,0,128,304Zm184-64H264V208h48Zm16-32h48v32H328Zm-192,0h48v32H136Zm64,0h48v32H200Zm48,48v32H200V256Zm16,0h48v32H264Zm0-64V160h48v32Zm-16,0H200V160h48Zm-64,0H136V160h48Zm-48,64h48v32H136Zm192,32V256h48v32Zm48-96H328V160h48ZM136,112h48v32H136Z"/></svg>
