<?xml version="1.0"?>
<svg xmlns="http://www.w3.org/2000/svg" id="OutLine" viewBox="0 0 512 512" width="512" height="512"><path d="M349.657,18.343A8,8,0,0,0,344,16H120A56.063,56.063,0,0,0,64,72V440a56.063,56.063,0,0,0,56,56H392a56.063,56.063,0,0,0,56-56V120a8,8,0,0,0-2.343-5.657ZM352,43.313,420.687,112H392a40.045,40.045,0,0,1-40-40ZM120,32H336V72a56.063,56.063,0,0,0,56,56h40V352H80V72A40.045,40.045,0,0,1,120,32ZM392,480H120a40.045,40.045,0,0,1-40-40V368H432v72A40.045,40.045,0,0,1,392,480Z"/><path d="M344,448H320V392a8,8,0,0,0-16,0v64a8,8,0,0,0,8,8h32a8,8,0,0,0,0-16Z"/><path d="M203.578,384.845a8,8,0,0,0-10.733,3.577L184,406.112l-8.845-17.69a8,8,0,0,0-14.31,7.156L175.056,424l-14.211,28.422a8,8,0,1,0,14.31,7.156L184,441.888l8.845,17.69a8,8,0,1,0,14.31-7.156L192.944,424l14.211-28.422A8,8,0,0,0,203.578,384.845Z"/><path d="M281.608,384.164a7.993,7.993,0,0,0-8.962,4.685L256,427.691l-16.646-38.842A8,8,0,0,0,224,392v64a8,8,0,0,0,16,0V430.976l8.646,20.175a8,8,0,0,0,14.708,0L272,430.976V456a8,8,0,0,0,16,0V392A8,8,0,0,0,281.608,384.164Z"/><path d="M186.343,269.657a8,8,0,1,0,11.314-11.314L155.313,216l42.344-42.343a8,8,0,0,0-11.314-11.314l-48,48a8,8,0,0,0,0,11.314Z"/><path d="M314.343,269.657a8,8,0,0,0,11.314,0l48-48a8,8,0,0,0,0-11.314l-48-48a8,8,0,0,0-11.314,11.314L356.687,216l-42.344,42.343A8,8,0,0,0,314.343,269.657Z"/><circle cx="256" cy="216" r="8"/><circle cx="288" cy="216" r="8"/><circle cx="224" cy="216" r="8"/></svg>
