<svg width="33" height="32" viewBox="0 0 33 32" fill="none" xmlns="http://www.w3.org/2000/svg">
<path d="M0 3C0 1.34315 1.34315 0 3 0H30C31.6569 0 33 1.34315 33 3V29C33 30.6569 31.6569 32 30 32H3C1.34315 32 0 30.6569 0 29V3Z" fill="#F6F7F8" fill-opacity="0.2"/>
<path d="M8.55553 7.33339H20.1111V14.4112H21.5555V7.33339C21.5555 6.9503 21.4033 6.5829 21.1325 6.31201C20.8616 6.04113 20.4942 5.88895 20.1111 5.88895H8.55553C8.17244 5.88895 7.80504 6.04113 7.53415 6.31201C7.26327 6.5829 7.11108 6.9503 7.11108 7.33339V24.6667C7.11108 25.0498 7.26327 25.4172 7.53415 25.6881C7.80504 25.959 8.17244 26.1112 8.55553 26.1112H20.1111C20.4942 26.1112 20.8616 25.959 21.1325 25.6881C21.4033 25.4172 21.5555 25.0498 21.5555 24.6667H8.55553V7.33339Z" fill="#F2F2F2"/>
<path d="M23.8376 15.4801C23.6994 15.3618 23.5217 15.3 23.3399 15.307C23.1582 15.314 22.9857 15.3894 22.8571 15.518C22.7285 15.6466 22.6531 15.819 22.6461 16.0008C22.6391 16.1826 22.7009 16.3603 22.8193 16.4985L25.2604 18.889H14.7881C14.5966 18.889 14.4129 18.9651 14.2775 19.1005C14.142 19.236 14.0659 19.4197 14.0659 19.6112C14.0659 19.8028 14.142 19.9865 14.2775 20.1219C14.4129 20.2574 14.5966 20.3335 14.7881 20.3335H25.2604L22.8193 22.8323C22.7436 22.8971 22.6822 22.9768 22.6389 23.0664C22.5955 23.156 22.5712 23.2536 22.5673 23.353C22.5635 23.4525 22.5803 23.5517 22.6166 23.6444C22.6529 23.737 22.708 23.8212 22.7783 23.8916C22.8487 23.962 22.9329 24.017 23.0256 24.0534C23.1183 24.0897 23.2174 24.1064 23.3169 24.1026C23.4164 24.0987 23.514 24.0744 23.6036 24.031C23.6932 23.9877 23.7728 23.9263 23.8376 23.8507L28.0554 19.6618L23.8376 15.4801Z" fill="#F2F2F2"/>
</svg>
